<?xml version="1.0" standalone="no"?><!DOCTYPE svg PUBLIC "-//W3C//DTD SVG 1.1//EN" "http://www.w3.org/Graphics/SVG/1.1/DTD/svg11.dtd"><svg t="1523512192643" class="icon" style="" viewBox="0 0 3341 1024" version="1.1" xmlns="http://www.w3.org/2000/svg" p-id="775" xmlns:xlink="http://www.w3.org/1999/xlink" width="652.5390625" height="200"><defs><style type="text/css"></style></defs><path d="M975.494737 264.084211c-14.37193 0-26.947368 12.575439-26.947369 26.947368s12.575439 26.947368 26.947369 26.947368 26.947368-12.575439 26.947368-26.947368-10.778947-26.947368-26.947368-26.947368M310.792982 255.101754c-14.37193 0-26.947368 12.575439-26.947368 26.947369s12.575439 26.947368 26.947368 26.947368 26.947368-12.575439 26.947369-26.947368c0-16.168421-12.575439-26.947368-26.947369-26.947369M754.526316 486.849123c-14.37193 0-26.947368 12.575439-26.947369 26.947368s12.575439 26.947368 26.947369 26.947369 26.947368-12.575439 26.947368-26.947369-12.575439-26.947368-26.947368-26.947368M727.578947 1018.610526L1131.789474 637.754386 662.905263 820.996491zM267.677193 282.049123c0-8.982456 3.592982-17.964912 8.982456-25.150877l-107.789474-140.126316L8.982456 398.821053 269.473684 298.217544c0-5.389474-1.796491-10.778947-1.796491-16.168421M353.908772 282.049123c0 7.185965-1.796491 14.37193-5.389474 19.761403l371.873684 186.835088c7.185965-10.778947 19.761404-17.964912 34.133334-17.964912 8.982456 0 17.964912 3.592982 23.354386 7.185965l167.073684-156.294737c-7.185965-7.185965-12.575439-19.761404-12.575439-30.540351 0-8.982456 1.796491-16.168421 5.389474-21.557895L596.435088 3.592982 348.519298 258.694737c3.592982 7.185965 5.389474 14.37193 5.389474 23.354386M310.792982 238.933333c10.778947 0 21.557895 3.592982 28.74386 10.778948L582.063158 1.796491 181.445614 111.382456l102.4 136.533333c8.982456-5.389474 17.964912-8.982456 26.947368-8.982456" fill="#0066FF" p-id="776"></path><path d="M974.021614 247.233123l-7.185965-192.224562L616.51986 1.113825l330.554386 258.694736c7.185965-7.185965 16.168421-10.778947 26.947368-12.575438" fill="#0066FF" p-id="777"></path><path d="M1018.610526 287.438596l190.42807-3.592982L979.087719 62.877193l7.185965 186.835088c17.964912 3.592982 30.540351 17.964912 32.336842 37.726315M975.494737 334.147368c-7.185965 0-14.37193-1.796491-19.761404-5.389473L786.863158 485.052632c5.389474 7.185965 10.778947 17.964912 10.778947 26.947368v3.592982l335.94386 98.807018-141.922807-283.845614c-5.389474 3.592982-8.982456 3.592982-16.168421 3.592982M1018.610526 298.217544c-1.796491 10.778947-7.185965 19.761404-16.168421 26.947368l143.719299 287.438597 73.65614-317.978948-201.207018 3.592983zM743.747368 556.912281L664.701754 806.624561l461.698246-179.649122-330.554386-97.010527c-5.389474 16.168421-21.557895 28.74386-39.522807 28.74386-5.389474 0-8.982456-1.796491-12.575439-1.796491M276.659649 307.2L0 414.989474l64.673684 183.242105 219.17193-285.642105c-3.592982 0-5.389474-1.796491-7.185965-5.389474M711.410526 513.796491c0-5.389474 1.796491-10.778947 3.592983-16.168421L341.333333 312.589474c-7.185965 8.982456-17.964912 12.575439-30.540351 12.575438-7.185965 0-12.575439-1.796491-17.964912-3.592982L70.063158 610.807018l-1.796491-1.796492v1.796492h301.810526l-59.284211-285.642106h1.796492c3.592982 0 7.185965 0 10.778947-1.796491l61.080702 292.82807h-1.796491l269.473684 190.42807 80.842105-255.101754c-12.575439-7.185965-21.557895-21.557895-21.557895-37.726316" fill="#0066FF" p-id="778"></path><path d="M3337.880702 819.2h-25.150877c-1.796491-5.389474-5.389474-10.778947-8.982457-12.575439-3.592982-1.796491-8.982456-3.592982-17.964912-3.592982-7.185965 0-12.575439 1.796491-16.168421 3.592982-3.592982 1.796491-5.389474 5.389474-5.389474 8.982457s3.592982 7.185965 8.982457 8.982456c3.592982 1.796491 10.778947 3.592982 23.354386 7.185965 12.575439 3.592982 23.354386 7.185965 28.743859 10.778947 8.982456 5.389474 14.37193 14.37193 14.37193 25.150877 0 25.150877-17.964912 37.726316-52.098246 37.726316-32.336842 0-50.301754-14.37193-52.098245-41.319298h25.150877c1.796491 7.185965 3.592982 12.575439 7.185965 16.168421 3.592982 3.592982 10.778947 3.592982 17.964912 3.592982 17.964912 0 26.947368-5.389474 26.947369-14.37193 0-5.389474-3.592982-8.982456-10.778948-12.575438-3.592982-1.796491-10.778947-3.592982-23.354386-7.185965-14.37193-3.592982-23.354386-7.185965-28.743859-10.778947-8.982456-5.389474-14.37193-14.37193-14.37193-23.354386 0-10.778947 3.592982-19.761404 12.575438-25.150878 8.982456-7.185965 19.761404-8.982456 34.133334-8.982456 35.929825 0 52.098246 12.575439 55.691228 37.726316M1579.115789 808.421053h-79.045614v-64.673685H1473.122807v161.684211h26.947368v-70.063158h79.045614v70.063158h26.947369v-161.684211h-26.947369zM1719.242105 844.350877c0 23.354386-12.575439 39.522807-30.540351 39.522807s-30.540351-16.168421-30.54035-39.522807c0-23.354386 12.575439-39.522807 30.54035-39.522807 19.761404 0 30.540351 16.168421 30.540351 39.522807M1688.701754 781.473684c-30.540351 0-61.080702 21.557895-61.080701 62.877193 0 39.522807 30.540351 61.080702 61.080701 61.080702s61.080702-21.557895 61.080702-61.080702c0-41.319298-30.540351-62.877193-61.080702-62.877193M2640.842105 844.350877c0 23.354386-12.575439 39.522807-30.540351 39.522807s-30.540351-16.168421-30.54035-39.522807c0-23.354386 12.575439-39.522807 30.54035-39.522807 19.761404 0 30.540351 16.168421 30.540351 39.522807m-30.540351-62.877193c-30.540351 0-61.080702 21.557895-61.080701 62.877193 0 39.522807 30.540351 61.080702 61.080701 61.080702s61.080702-21.557895 61.080702-61.080702c0-41.319298-30.540351-62.877193-61.080702-62.877193M2917.501754 844.350877c0 23.354386-12.575439 39.522807-30.54035 39.522807s-30.540351-16.168421-30.540351-39.522807c0-23.354386 12.575439-39.522807 30.540351-39.522807s30.540351 16.168421 30.54035 39.522807m-30.54035-62.877193c-30.540351 0-61.080702 21.557895-61.080702 62.877193 0 39.522807 30.540351 61.080702 61.080702 61.080702s61.080702-21.557895 61.080701-61.080702c0-41.319298-30.540351-62.877193-61.080701-62.877193M2119.859649 844.350877c0 23.354386-12.575439 39.522807-30.540351 39.522807s-30.540351-16.168421-30.540351-39.522807c0-23.354386 12.575439-39.522807 30.540351-39.522807s30.540351 16.168421 30.540351 39.522807m-30.540351-62.877193c-30.540351 0-61.080702 21.557895-61.080702 62.877193 0 39.522807 30.540351 61.080702 61.080702 61.080702s61.080702-21.557895 61.080702-61.080702c0-41.319298-30.540351-62.877193-61.080702-62.877193M1830.624561 785.066667c-12.575439 0-26.947368 8.982456-35.929824 23.354386l-1.796491-23.354386h-25.150878v120.364912h28.74386v-68.266667c8.982456-23.354386 23.354386-25.150877 28.74386-25.150877 5.389474 0 7.185965 0 12.575438 1.796491h1.796492l5.389473-25.150877h-1.796491c-1.796491-3.592982-5.389474-3.592982-12.575439-3.592982M2013.866667 803.031579v-17.964912h-95.214035v25.150877h57.487719l-61.080702 79.045614v16.168421h100.603509V880.280702h-62.877193zM2497.122807 794.049123c0 19.761404-12.575439 25.150877-37.726316 25.150877h-25.150877v-52.098246h25.150877c26.947368 1.796491 37.726316 8.982456 37.726316 26.947369m30.540351 0c0-34.133333-21.557895-50.301754-64.673684-50.301755H2407.298246v161.684211h26.947368V844.350877h25.150877l39.522807 61.080702h35.929825l-43.11579-64.673684c23.354386-8.982456 35.929825-21.557895 35.929825-46.708772M2745.038596 882.077193c-5.389474 0-14.37193-1.796491-25.150877-8.982456v-55.691228c10.778947-8.982456 19.761404-12.575439 28.74386-12.575439 17.964912 0 30.540351 12.575439 30.540351 37.726316 0 23.354386-16.168421 39.522807-34.133334 39.522807m8.982457-100.603509c-10.778947 0-23.354386 5.389474-35.929825 12.575439v-53.894737h-25.150877v161.68421h19.761403l1.796492-10.778947c10.778947 8.982456 23.354386 14.37193 34.133333 14.37193 26.947368 0 55.691228-21.557895 55.691228-64.673684 1.796491-37.726316-17.964912-59.284211-50.301754-59.284211M2428.85614 621.585965v-149.108772h174.259649v-44.912281h-174.259649v-150.905263h156.294737V233.54386h-353.908772v43.115789h152.701755v150.905263h-170.666667v44.912281h170.666667v149.108772z" fill="#333333" p-id="779"></path><path d="M2477.361404 395.22807l-1.796492 1.796491 43.11579 12.575439v-1.796491c12.575439-19.761404 26.947368-53.894737 48.505263-98.807018v-1.796491l-46.708772-12.575439v1.796492c-10.778947 28.74386-28.74386 70.063158-43.115789 98.807017M2297.712281 409.6l41.319298-16.168421v-1.796491c-7.185965-26.947368-28.74386-66.470175-44.912281-93.417544v-1.796491l-39.522807 14.371929 1.796491 1.796492c16.168421 28.74386 34.133333 68.266667 43.11579 95.214035l-1.796491 1.796491zM3301.950877 258.694737l-32.336842 25.150877c-10.778947-16.168421-25.150877-30.540351-44.912281-50.301754l30.540351-21.557895c21.557895 19.761404 35.929825 32.336842 46.708772 46.708772" fill="#333333" p-id="780"></path><path d="M3342.228211 536.468211c-8.982456-5.389474-26.947368-14.37193-34.133334-23.354386l-3.592982-3.592983v3.592983c-1.796491 39.522807-12.575439 59.284211-21.557895 61.080701-14.37193 1.796491-25.150877-7.185965-37.726316-34.133333 34.133333-26.947368 52.098246-46.708772 71.859649-79.045614l1.796492-1.796491-37.726316-16.168421v1.796491c-14.37193 23.354386-25.150877 35.929825-48.505263 55.691228-5.389474-21.557895-10.778947-44.912281-14.37193-68.266667l105.992982-19.761403-7.185965-39.522807-105.992982 19.761403c0-16.168421-1.796491-32.336842-1.796491-48.505263l104.196491-16.168421-7.185965-39.522807-100.603509 14.37193C3203.898386 275.976982 3203.898386 247.233123 3203.898386 216.692772V214.896281H3160.782596v1.796491c0 32.336842 0 62.877193 1.796492 93.417544l-66.470176 8.982456 7.185965 41.319298L3166.17207 349.633123c0 17.964912 1.796491 34.133333 3.592983 48.505263l-80.842106 14.37193H3087.126456l7.185965 41.319298 80.842105-14.37193c5.389474 32.336842 10.778947 62.877193 19.761404 88.02807-35.929825 23.354386-61.080702 37.726316-104.196491 50.301755H3088.922947v3.592982c8.982456 8.982456 19.761404 23.354386 25.150878 34.133334v1.796491h1.796491c41.319298-14.37193 61.080702-28.74386 93.417544-48.505263 19.761404 39.522807 43.115789 55.691228 71.859649 55.691228 34.133333-3.592982 53.894737-35.929825 61.080702-88.02807" fill="#333333" p-id="781"></path><path d="M3098.947368 567.691228l-5.389473-37.726316-19.761404 5.389474c-50.301754 12.575439-97.010526 25.150877-131.143859 34.133333h-1.796492l7.185965 43.11579h1.796491c37.726316-12.575439 93.417544-28.74386 149.108772-44.912281zM2944.449123 409.6v1.796491l1.796491-1.796491c5.389474-3.592982 16.168421-5.389474 59.284211-12.575439-16.168421 25.150877-28.74386 43.115789-35.929825 50.301755-14.37193 17.964912-23.354386 26.947368-32.336842 30.540351h-1.796491v1.796491c5.389474 10.778947 10.778947 28.74386 12.575438 35.929824v1.796492l1.796491-1.796492c10.778947-5.389474 25.150877-10.778947 132.940351-35.929824h1.796492v-1.796491c-1.796491-8.982456-1.796491-23.354386 0-34.133334v-1.796491l-75.452632 16.168421c30.540351-39.522807 59.284211-84.435088 82.638597-127.550877v-1.796491l-37.726316-21.557895v1.796491c-7.185965 14.37193-16.168421 32.336842-25.150877 46.708772l-43.11579 5.389474c23.354386-34.133333 44.912281-77.249123 62.877193-122.161404v-1.796491l-43.115789-19.761403v1.796491c-14.37193 52.098246-44.912281 107.789474-53.894737 122.161403-8.982456 14.37193-16.168421 23.354386-23.354386 26.947369h-1.796491v1.796491c8.982456 12.575439 14.37193 32.336842 17.964912 39.522807M1615.045614 481.459649c-12.575439 5.389474-28.74386 12.575439-43.115789 17.964912v-120.364912H1616.842105v-43.115789h-44.91228V215.578947h-41.319299v120.364913h-46.708772v43.115789h46.708772v138.329825c-25.150877 10.778947-43.115789 17.964912-57.487719 21.557894h-1.796491l17.964912 44.912281h1.796491c44.912281-19.761404 95.214035-43.115789 136.533334-62.877193l-10.778948-41.319298-1.796491 1.796491z" fill="#333333" p-id="782"></path><path d="M1616.842105 436.547368l30.540351-12.575438v129.347368c0 53.894737 16.168421 68.266667 71.859649 68.266667h100.603509c52.098246 0 62.877193-25.150877 68.266667-82.638597v-1.796491h-1.796492c-10.778947-1.796491-26.947368-8.982456-35.929824-14.37193l-1.796491-1.796491v3.592983c-3.592982 50.301754-8.982456 57.487719-30.540351 57.487719h-97.010527c-26.947368 0-32.336842-3.592982-32.336842-28.74386v-143.719298l46.708772-16.168421v136.533333H1778.526316v-150.905263l52.098245-17.964912v14.37193c0 68.266667-1.796491 75.452632-1.796491 80.842105-1.796491 8.982456-5.389474 8.982456-8.982456 8.982456H1791.101754l1.796492 1.796491c3.592982 8.982456 7.185965 23.354386 8.982456 34.133334v1.796491h1.796491c14.37193 0 30.540351 0 43.115789-5.389474 14.37193-3.592982 21.557895-14.37193 25.150878-34.133333 1.796491-10.778947 3.592982-32.336842 3.592982-75.452632V298.217544l-97.010526 35.929824V215.578947h-41.319298v134.736842l-46.708772 16.168422v-107.789474h-43.11579v120.364912l-30.540351 10.778947v7.185965M3028.884211 880.280702c-3.592982 0-5.389474 1.796491-8.982457 1.796491-12.575439 0-16.168421-7.185965-16.168421-21.557895v-53.894737h28.74386v-21.557894h-28.74386v-41.319299l-25.150877 10.778948v30.540351h-19.761403V806.624561h17.964912v53.894737c0 30.540351 8.982456 46.708772 35.929824 46.708772 5.389474 0 10.778947 0 14.37193-1.796491V880.280702zM1861.164912 905.431579h26.947369v-120.364912h-26.947369zM1893.501754 756.322807c0 10.778947-8.982456 17.964912-17.964912 17.964912-10.778947 0-17.964912-8.982456-17.964912-17.964912s8.982456-17.964912 17.964912-17.964912 17.964912 7.185965 17.964912 17.964912M3061.221053 905.431579h25.150877v-120.364912h-25.150877zM3091.761404 756.322807c0 10.778947-8.982456 17.964912-17.964913 17.964912-10.778947 0-17.964912-8.982456-17.964912-17.964912s8.982456-17.964912 17.964912-17.964912c10.778947 0 17.964912 7.185965 17.964913 17.964912M3195.957895 860.519298c-3.592982 14.37193-14.37193 23.354386-28.74386 23.354386-17.964912 0-30.540351-14.37193-30.540351-39.522807 0-23.354386 12.575439-39.522807 30.540351-39.522807 14.37193 0 23.354386 8.982456 28.74386 21.557895h30.540351c-7.185965-28.74386-32.336842-44.912281-59.284211-44.912281-30.540351 0-61.080702 21.557895-61.080702 62.877193 0 39.522807 30.540351 61.080702 61.080702 61.080702 25.150877 0 52.098246-16.168421 59.284211-44.912281h-30.540351zM2277.950877 837.164912c0-34.133333-14.37193-52.098246-39.522807-52.098245-16.168421 0-28.74386 7.185965-37.726316 16.168421l-1.796491-16.168421h-26.947368v118.568421h28.743859V826.385965c10.778947-10.778947 17.964912-16.168421 28.74386-16.168421 14.37193 0 19.761404 8.982456 19.761404 28.74386v64.673684h28.743859v-66.470176z" fill="#333333" p-id="783"></path></svg>